<svg xmlns="http://www.w3.org/2000/svg" version="1.1" xmlns:xlink="http://www.w3.org/1999/xlink" xmlns:svgjs="http://svgjs.dev/svgjs" width="1000" height="1000" viewBox="0 0 1000 1000"><rect width="1000" height="1000" fill="#ffffff"></rect><g transform="matrix(0.7,0,0,0.7,149.5757663638351,423.28804129198545)"><svg viewBox="0 0 396 87" data-background-color="#01ff70" preserveAspectRatio="xMidYMid meet" height="219" width="1000" xmlns="http://www.w3.org/2000/svg" xmlns:xlink="http://www.w3.org/1999/xlink"><g id="tight-bounds" transform="matrix(1,0,0,1,0.23999502845902043,0.03516247617267254)"><svg viewBox="0 0 395.52 86.92967504765468" height="86.92967504765468" width="395.52"><g><svg viewBox="0 0 496.48529400502434 109.12041179661223" height="86.92967504765468" width="395.52"><g transform="matrix(1,0,0,1,100.96529400502436,15.081040993598364)"><svg viewBox="0 0 395.52 78.9583298094155" height="78.9583298094155" width="395.52"><g id="textblocktransform"><svg viewBox="0 0 395.52 78.9583298094155" height="78.9583298094155" width="395.52" id="textblock"><g><svg viewBox="0 0 395.52 44.19577977751009" height="44.19577977751009" width="395.52"><g transform="matrix(1,0,0,1,0,0)"><svg width="395.52" viewBox="4.130000114440918 -38.0099983215332 344.5199890136719 38.5" height="44.19577977751009" data-palette-color="#000000"><path d="M16.8-16.65L7.81-16.65 7.76-20.39 15.92-20.39Q18.95-20.39 20.8-21.9 22.66-23.41 22.66-26.12L22.66-26.12Q22.66-29.05 20.96-30.38 19.26-31.71 15.8-31.71L15.8-31.71 8.86-31.71 8.86 0 4.13 0 4.13-35.55 15.8-35.55Q21.24-35.55 24.32-33.29 27.39-31.03 27.39-26.07L27.39-26.07Q27.39-23.88 26.27-22.11 25.15-20.34 23.13-19.21 21.12-18.09 18.46-17.77L18.46-17.77 16.8-16.65ZM16.58 0L5.93 0 8.64-3.81 16.58-3.81Q19.92-3.81 21.75-5.54 23.58-7.28 23.58-10.21L23.58-10.21Q23.58-12.18 22.88-13.64 22.17-15.09 20.68-15.87 19.19-16.65 16.8-16.65L16.8-16.65 10.08-16.65 10.13-20.39 19.31-20.39 20.31-19.02Q22.88-18.8 24.66-17.58 26.44-16.36 27.38-14.45 28.32-12.55 28.32-10.25L28.32-10.25Q28.32-5.25 25.11-2.62 21.9 0 16.58 0L16.58 0ZM33.4-12.92L33.4-13.48Q33.4-17.31 34.86-20.34 36.33-23.36 39.01-25.13 41.7-26.9 45.38-26.9L45.38-26.9Q49.12-26.9 51.83-25.13 54.54-23.36 55.99-20.34 57.44-17.31 57.44-13.48L57.44-13.48 57.44-12.92Q57.44-9.11 55.99-6.07 54.54-3.03 51.84-1.27 49.14 0.49 45.43 0.49L45.43 0.49Q41.72 0.49 39.02-1.27 36.33-3.03 34.86-6.07 33.4-9.11 33.4-12.92L33.4-12.92ZM37.96-13.48L37.96-12.92Q37.96-10.3 38.79-8.08 39.62-5.86 41.27-4.52 42.92-3.17 45.43-3.17L45.43-3.17Q47.92-3.17 49.57-4.52 51.22-5.86 52.05-8.08 52.88-10.3 52.88-12.92L52.88-12.92 52.88-13.48Q52.88-16.09 52.05-18.31 51.22-20.53 49.56-21.89 47.9-23.24 45.38-23.24L45.38-23.24Q42.92-23.24 41.26-21.89 39.6-20.53 38.78-18.31 37.96-16.09 37.96-13.48L37.96-13.48ZM79.27-6.1L79.27-26.42 83.83-26.42 83.83 0 79.49 0 79.27-6.1ZM80.12-11.67L82.03-11.72Q82.03-8.2 81.03-5.44 80.02-2.69 77.75-1.1 75.48 0.49 71.67 0.49L71.67 0.49Q67.79 0.49 65.4-1.81 63.01-4.1 63.01-9.38L63.01-9.38 63.01-26.42 67.57-26.42 67.57-9.33Q67.57-6.93 68.27-5.63 68.96-4.32 70.08-3.82 71.19-3.32 72.41-3.32L72.41-3.32Q75.29-3.32 76.97-4.43 78.66-5.54 79.39-7.45 80.12-9.35 80.12-11.67L80.12-11.67ZM95.23-20.78L95.23 0 90.67 0 90.67-26.42 94.99-26.42 95.23-20.78ZM94.16-14.23L92.25-14.31Q92.3-17.92 93.64-20.76 94.99-23.61 97.39-25.26 99.8-26.9 103-26.9L103-26.9Q105.61-26.9 107.5-25.94 109.39-24.98 110.43-22.88 111.47-20.78 111.47-17.31L111.47-17.31 111.47 0 106.9 0 106.9-17.36Q106.9-19.43 106.3-20.7 105.71-21.97 104.53-22.55 103.36-23.12 101.65-23.12L101.65-23.12Q99.97-23.12 98.6-22.41 97.23-21.7 96.23-20.46 95.23-19.21 94.69-17.61 94.16-16.02 94.16-14.23L94.16-14.23ZM129.38-26.42L129.38-22.97 115.08-22.97 115.08-26.42 129.38-26.42ZM119.89-32.84L124.45-32.84 124.45-6.54Q124.45-5.18 124.87-4.49 125.28-3.81 125.94-3.59 126.6-3.37 127.36-3.37L127.36-3.37Q127.92-3.37 128.54-3.47 129.16-3.56 129.46-3.64L129.46-3.64 129.48 0Q128.95 0.17 128.08 0.33 127.21 0.49 125.99 0.49L125.99 0.49Q124.33 0.49 122.94-0.17 121.55-0.83 120.72-2.38 119.89-3.93 119.89-6.57L119.89-6.57 119.89-32.84ZM139.59-26.42L139.59 0 135.02 0 135.02-26.42 139.59-26.42ZM134.68-33.45L134.68-33.45Q134.68-34.52 135.35-35.28 136.02-36.04 137.34-36.04L137.34-36.04Q138.66-36.04 139.36-35.28 140.05-34.52 140.05-33.45L140.05-33.45Q140.05-32.4 139.36-31.65 138.66-30.91 137.34-30.91L137.34-30.91Q136.02-30.91 135.35-31.65 134.68-32.4 134.68-33.45ZM153.57 0L149.01 0 149.01-29.22Q149.01-33.47 151.34-35.74 153.67-38.01 157.72-38.01L157.72-38.01Q158.51-38.01 159.29-37.92 160.07-37.82 160.82-37.62L160.82-37.62 160.58-33.98Q160.07-34.08 159.42-34.13 158.77-34.18 158.14-34.18L158.14-34.18Q155.99-34.18 154.78-32.9 153.57-31.62 153.57-29.22L153.57-29.22 153.57 0ZM159.19-26.42L159.19-22.97 144.86-22.97 144.86-26.42 159.19-26.42ZM180.33-6.1L180.33-26.42 184.89-26.42 184.89 0 180.55 0 180.33-6.1ZM181.18-11.67L183.09-11.72Q183.09-8.2 182.09-5.44 181.09-2.69 178.82-1.1 176.55 0.49 172.74 0.49L172.74 0.49Q168.85 0.49 166.46-1.81 164.07-4.1 164.07-9.38L164.07-9.38 164.07-26.42 168.63-26.42 168.63-9.33Q168.63-6.93 169.33-5.63 170.03-4.32 171.14-3.82 172.25-3.32 173.47-3.32L173.47-3.32Q176.35-3.32 178.03-4.43 179.72-5.54 180.45-7.45 181.18-9.35 181.18-11.67L181.18-11.67ZM196.68-37.5L196.68 0 192.12 0 192.12-37.5 196.68-37.5ZM221.73-35.55L221.73 0 216.99 0 216.99-35.55 221.73-35.55ZM236.6-19.53L236.6-15.72 220.7-15.72 220.7-19.53 236.6-19.53ZM239.01-35.55L239.01-31.71 220.7-31.71 220.7-35.55 239.01-35.55ZM242.23-12.92L242.23-13.48Q242.23-17.31 243.7-20.34 245.16-23.36 247.85-25.13 250.53-26.9 254.22-26.9L254.22-26.9Q257.96-26.9 260.67-25.13 263.38-23.36 264.83-20.34 266.28-17.31 266.28-13.48L266.28-13.48 266.28-12.92Q266.28-9.11 264.83-6.07 263.38-3.03 260.68-1.27 257.98 0.49 254.27 0.49L254.27 0.49Q250.56 0.49 247.86-1.27 245.16-3.03 243.7-6.07 242.23-9.11 242.23-12.92L242.23-12.92ZM246.8-13.48L246.8-12.92Q246.8-10.3 247.63-8.08 248.46-5.86 250.11-4.52 251.75-3.17 254.27-3.17L254.27-3.17Q256.76-3.17 258.41-4.52 260.06-5.86 260.89-8.08 261.72-10.3 261.72-12.92L261.72-12.92 261.72-13.48Q261.72-16.09 260.89-18.31 260.06-20.53 258.4-21.89 256.74-23.24 254.22-23.24L254.22-23.24Q251.75-23.24 250.09-21.89 248.43-20.53 247.62-18.31 246.8-16.09 246.8-13.48L246.8-13.48ZM270.77-12.92L270.77-13.48Q270.77-17.31 272.24-20.34 273.7-23.36 276.39-25.13 279.07-26.9 282.76-26.9L282.76-26.9Q286.49-26.9 289.2-25.13 291.91-23.36 293.37-20.34 294.82-17.31 294.82-13.48L294.82-13.48 294.82-12.92Q294.82-9.11 293.37-6.07 291.91-3.03 289.22-1.27 286.52 0.49 282.81 0.49L282.81 0.49Q279.1 0.49 276.4-1.27 273.7-3.03 272.24-6.07 270.77-9.11 270.77-12.92L270.77-12.92ZM275.34-13.48L275.34-12.92Q275.34-10.3 276.17-8.08 277-5.86 278.64-4.52 280.29-3.17 282.81-3.17L282.81-3.17Q285.3-3.17 286.95-4.52 288.59-5.86 289.42-8.08 290.25-10.3 290.25-12.92L290.25-12.92 290.25-13.48Q290.25-16.09 289.42-18.31 288.59-20.53 286.93-21.89 285.27-23.24 282.76-23.24L282.76-23.24Q280.29-23.24 278.63-21.89 276.97-20.53 276.15-18.31 275.34-16.09 275.34-13.48L275.34-13.48ZM317.13-5.13L317.13-37.5 321.7-37.5 321.7 0 317.52 0 317.13-5.13ZM299.38-12.92L299.38-13.43Q299.38-17.46 300.69-20.5 301.99-23.54 304.34-25.22 306.68-26.9 309.83-26.9L309.83-26.9Q313.15-26.9 315.37-25.38 317.59-23.85 318.85-21.04 320.11-18.24 320.48-14.36L320.48-14.36 320.48-11.99Q320.11-8.15 318.86-5.36 317.62-2.56 315.38-1.04 313.15 0.49 309.78 0.49L309.78 0.49Q306.68 0.49 304.34-1.26 301.99-3 300.69-6.03 299.38-9.06 299.38-12.92L299.38-12.92ZM303.95-13.43L303.95-12.92Q303.95-10.28 304.67-8.11 305.39-5.93 306.93-4.63 308.46-3.32 310.91-3.32L310.91-3.32Q313.15-3.32 314.6-4.27 316.06-5.22 316.94-6.79 317.81-8.35 318.3-10.18L318.3-10.18 318.3-16.11Q318.01-17.46 317.46-18.71 316.91-19.97 316.04-20.96 315.18-21.95 313.92-22.53 312.66-23.12 310.95-23.12L310.95-23.12Q308.49-23.12 306.94-21.8 305.39-20.48 304.67-18.27 303.95-16.06 303.95-13.43L303.95-13.43ZM344.08-7.01L344.08-7.01Q344.08-7.98 343.65-8.83 343.23-9.67 341.93-10.36 340.64-11.06 338.03-11.6L338.03-11.6Q335.1-12.21 332.96-13.15 330.82-14.09 329.66-15.55 328.51-17.02 328.51-19.19L328.51-19.19Q328.51-21.29 329.71-23.03 330.92-24.78 333.13-25.84 335.34-26.9 338.3-26.9L338.3-26.9Q341.47-26.9 343.73-25.79 345.99-24.68 347.18-22.81 348.38-20.95 348.38-18.68L348.38-18.68 343.81-18.68Q343.81-20.31 342.38-21.78 340.96-23.24 338.3-23.24L338.3-23.24Q336.44-23.24 335.28-22.67 334.12-22.09 333.6-21.2 333.07-20.31 333.07-19.34L333.07-19.34Q333.07-18.36 333.56-17.64 334.05-16.92 335.35-16.36 336.66-15.8 339.15-15.23L339.15-15.23Q342.4-14.5 344.5-13.48 346.6-12.45 347.62-10.96 348.65-9.47 348.65-7.32L348.65-7.32Q348.65-5.03 347.38-3.26 346.11-1.49 343.81-0.5 341.52 0.49 338.42 0.49L338.42 0.49Q334.93 0.49 332.51-0.76 330.09-2 328.85-3.97 327.6-5.93 327.6-8.13L327.6-8.13 332.17-8.13Q332.29-6.27 333.25-5.19 334.22-4.1 335.62-3.64 337.03-3.17 338.42-3.17L338.42-3.17Q340.27-3.17 341.53-3.67 342.79-4.17 343.43-5.04 344.08-5.91 344.08-7.01Z" opacity="1" transform="matrix(1,0,0,1,0,0)" fill="#000000" class="wordmark-text-0" data-fill-palette-color="primary" id="text-0"></path></svg></g></svg></g><g transform="matrix(1,0,0,1,39.55199999999999,54.629342684265566)"><svg viewBox="0 0 316.416 24.32898712514994" height="24.32898712514994" width="316.416"><g transform="matrix(1,0,0,1,0,0)"><svg width="316.416" viewBox="1.6100000143051147 -38.599998474121094 610.530029296875 46.94999694824219" height="24.32898712514994" data-palette-color="#000000"><path d="M15.53 0L1.61 0 1.61-3.76 5.49-4.49 5.49-31.03 1.61-31.76 1.61-35.55 29.25-35.55 29.25-26.32 24.46-26.32 24.07-30.79 11.65-30.79 11.65-19.95 24.32-19.95 24.32-15.19 11.65-15.19 11.65-4.49 15.53-3.76 15.53 0ZM40.33 0.51L40.33 0.51Q36.3 0.51 34.06-1.56 31.81-3.64 31.81-7.28L31.81-7.28Q31.81-9.77 33.18-11.65 34.54-13.53 37.18-14.59 39.82-15.65 43.58-15.65L43.58-15.65 47.6-15.65 47.6-17.87Q47.6-19.97 46.35-21.22 45.09-22.46 42.7-22.46L42.7-22.46Q41.33-22.46 40.28-22.13 39.23-21.8 38.4-21.19L38.4-21.19 37.84-17.63 33.32-17.63 33.27-24.15Q35.23-25.42 37.62-26.16 40.01-26.9 42.94-26.9L42.94-26.9Q47.97-26.9 50.86-24.55 53.76-22.19 53.76-17.8L53.76-17.8 53.76-6.15Q53.76-5.62 53.77-5.1 53.78-4.59 53.83-4.1L53.83-4.1 56.52-3.76 56.52 0 48.48 0Q48.24-0.85 48.03-1.66 47.82-2.47 47.73-3.27L47.73-3.27Q46.41-1.61 44.54-0.55 42.67 0.51 40.33 0.51ZM41.72-4.25L41.72-4.25Q43.58-4.25 45.19-5.11 46.8-5.98 47.6-7.3L47.6-7.3 47.6-11.72 43.5-11.72Q40.74-11.72 39.34-10.44 37.94-9.16 37.94-7.45L37.94-7.45Q37.94-5.91 38.91-5.08 39.89-4.25 41.72-4.25ZM70.6 0.51L70.6 0.51Q67.77 0.51 65.31-0.04 62.86-0.59 60.4-1.66L60.4-1.66 60.32-8.64 64.74-8.64 65.67-4.83Q66.72-4.37 67.83-4.11 68.94-3.86 70.31-3.86L70.31-3.86Q72.94-3.86 74.03-4.79 75.12-5.71 75.12-7.08L75.12-7.08Q75.12-8.4 73.98-9.34 72.85-10.28 69.65-10.96L69.65-10.96Q64.91-11.99 62.68-13.95 60.44-15.92 60.44-19.07L60.44-19.07Q60.44-21.24 61.6-23 62.76-24.76 65.02-25.82 67.28-26.88 70.58-26.88L70.58-26.88Q73.58-26.88 75.91-26.26 78.24-25.63 79.88-24.61L79.88-24.61 80.02-17.9 75.65-17.9 74.9-21.39Q74.14-21.92 73.14-22.22 72.14-22.51 70.84-22.51L70.84-22.51Q68.82-22.51 67.65-21.62 66.47-20.73 66.47-19.38L66.47-19.38Q66.47-18.6 66.85-17.97 67.23-17.33 68.32-16.81 69.4-16.28 71.5-15.8L71.5-15.8Q76.66-14.6 78.88-12.67 81.1-10.74 81.1-7.57L81.1-7.57Q81.1-4.03 78.51-1.76 75.92 0.51 70.6 0.51ZM94.6 0.46L94.6 0.46Q91.23 0.46 89.35-1.43 87.47-3.32 87.47-7.47L87.47-7.47 87.47-22.02 83.61-22.02 83.61-26.42 87.47-26.42 87.47-32.84 93.6-32.84 93.6-26.42 98.82-26.42 98.82-22.02 93.6-22.02 93.6-7.47Q93.6-5.79 94.29-5.02 94.99-4.25 96.18-4.25L96.18-4.25Q96.87-4.25 97.71-4.37 98.55-4.49 99.06-4.61L99.06-4.61 99.7-0.29Q98.63 0.02 97.25 0.24 95.87 0.46 94.6 0.46ZM105.12 8.35L105.12 8.35 101.94 6.47Q102.99 4.76 103.53 2.93 104.07 1.1 104.07-1.07L104.07-1.07 104.07-5.71 109.8-5.71 109.78-1.29Q109.78 1.37 108.46 3.98 107.14 6.59 105.12 8.35ZM140.73 0L126.3 0 126.3-3.76 129.99-4.49 129.99-22.02 125.96-22.02 125.96-26.42 129.99-26.42 129.99-29.52Q129.99-33.86 132.39-36.23 134.8-38.6 139.12-38.6L139.12-38.6Q140.12-38.6 141.27-38.44 142.42-38.28 143.37-38.04L143.37-38.04 142.76-33.42Q142.25-33.54 141.49-33.63 140.73-33.72 140-33.72L140-33.72Q138.05-33.72 137.08-32.64 136.12-31.57 136.12-29.52L136.12-29.52 136.12-26.42 142.03-26.42 142.03-22.02 136.12-22.02 136.12-4.49 140.73-3.76 140.73 0ZM158.63 0L145.15 0 145.15-3.76 148.81-4.49 148.81-21.9 144.95-22.63 144.95-26.42 154.47-26.42 154.79-23.1 154.84-22.56Q155.89-24.66 157.42-25.78 158.94-26.9 160.99-26.9L160.99-26.9Q161.68-26.9 162.45-26.78 163.21-26.66 163.7-26.51L163.7-26.51 163-20.83 159.55-21.02Q157.87-21.12 156.78-20.36 155.7-19.6 154.96-18.26L154.96-18.26 154.96-4.49 158.63-3.76 158.63 0ZM178.08 0.51L178.08 0.51Q174.35 0.51 171.57-1.16 168.8-2.83 167.28-5.79 165.75-8.74 165.75-12.55L165.75-12.55 165.75-13.57Q165.75-17.43 167.25-20.45 168.75-23.46 171.39-25.18 174.03-26.9 177.4-26.9L177.4-26.9Q180.99-26.9 183.42-25.46 185.84-24.02 187.09-21.37 188.33-18.73 188.33-15.01L188.33-15.01 188.33-11.5 172.12-11.5 172.07-11.38Q172.17-9.3 172.94-7.69 173.71-6.08 175.14-5.15 176.57-4.22 178.62-4.22L178.62-4.22Q180.77-4.22 182.52-4.81 184.28-5.4 185.77-6.47L185.77-6.47 187.7-2.61Q186.14-1.29 183.72-0.39 181.3 0.51 178.08 0.51ZM172.15-15.94L172.22-15.82 182.45-15.82 182.45-16.46Q182.45-18.19 181.93-19.49 181.4-20.8 180.29-21.53 179.18-22.27 177.47-22.27L177.47-22.27Q175.98-22.27 174.86-21.44 173.73-20.61 173.06-19.18 172.39-17.75 172.15-15.94L172.15-15.94ZM202.93 0.51L202.93 0.51Q200.1 0.51 197.65-0.04 195.19-0.59 192.73-1.66L192.73-1.66 192.65-8.64 197.07-8.64 198-4.83Q199.05-4.37 200.16-4.11 201.27-3.86 202.64-3.86L202.64-3.86Q205.28-3.86 206.36-4.79 207.45-5.71 207.45-7.08L207.45-7.08Q207.45-8.4 206.31-9.34 205.18-10.28 201.98-10.96L201.98-10.96Q197.24-11.99 195.01-13.95 192.78-15.92 192.78-19.07L192.78-19.07Q192.78-21.24 193.94-23 195.09-24.76 197.35-25.82 199.61-26.88 202.91-26.88L202.91-26.88Q205.91-26.88 208.24-26.26 210.57-25.63 212.21-24.61L212.21-24.61 212.36-17.9 207.99-17.9 207.23-21.39Q206.47-21.92 205.47-22.22 204.47-22.51 203.18-22.51L203.18-22.51Q201.15-22.51 199.98-21.62 198.81-20.73 198.81-19.38L198.81-19.38Q198.81-18.6 199.18-17.97 199.56-17.33 200.65-16.81 201.74-16.28 203.83-15.8L203.83-15.8Q208.99-14.6 211.21-12.67 213.43-10.74 213.43-7.57L213.43-7.57Q213.43-4.03 210.84-1.76 208.25 0.51 202.93 0.51ZM229.76 0L216.5 0 216.5-3.76 220.17-4.49 220.17-33.57 216.28-34.3 216.28-38.09 226.29-38.09 226.29-23Q227.59-24.85 229.49-25.88 231.4-26.9 233.79-26.9L233.79-26.9Q237.87-26.9 240.2-24.3 242.53-21.7 242.53-16.28L242.53-16.28 242.53-4.49 246.19-3.76 246.19 0 232.93 0 232.93-3.76 236.4-4.49 236.4-16.33Q236.4-19.36 235.18-20.7 233.96-22.05 231.59-22.05L231.59-22.05Q229.91-22.05 228.55-21.3 227.2-20.56 226.29-19.21L226.29-19.21 226.29-4.49 229.76-3.76 229.76 0ZM251.49 8.35L251.49 8.35 248.31 6.47Q249.36 4.76 249.9 2.93 250.44 1.1 250.44-1.07L250.44-1.07 250.44-5.71 256.17-5.71 256.15-1.29Q256.15 1.37 254.83 3.98 253.51 6.59 251.49 8.35ZM281.22 0.51L281.22 0.51Q277.19 0.51 274.94-1.56 272.7-3.64 272.7-7.28L272.7-7.28Q272.7-9.77 274.06-11.65 275.43-13.53 278.07-14.59 280.7-15.65 284.46-15.65L284.46-15.65 288.49-15.65 288.49-17.87Q288.49-19.97 287.24-21.22 285.98-22.46 283.59-22.46L283.59-22.46Q282.22-22.46 281.17-22.13 280.12-21.8 279.29-21.19L279.29-21.19 278.73-17.63 274.21-17.63 274.16-24.15Q276.11-25.42 278.51-26.16 280.9-26.9 283.83-26.9L283.83-26.9Q288.86-26.9 291.75-24.55 294.65-22.19 294.65-17.8L294.65-17.8 294.65-6.15Q294.65-5.62 294.66-5.1 294.67-4.59 294.72-4.1L294.72-4.1 297.4-3.76 297.4 0 289.37 0Q289.13-0.85 288.92-1.66 288.71-2.47 288.61-3.27L288.61-3.27Q287.3-1.61 285.43-0.55 283.56 0.51 281.22 0.51ZM282.61-4.25L282.61-4.25Q284.46-4.25 286.08-5.11 287.69-5.98 288.49-7.3L288.49-7.3 288.49-11.72 284.39-11.72Q281.63-11.72 280.23-10.44 278.82-9.16 278.82-7.45L278.82-7.45Q278.82-5.91 279.8-5.08 280.78-4.25 282.61-4.25ZM313.42 0L300.26 0 300.26-3.76 303.92-4.49 303.92-21.9 300.06-22.63 300.06-26.42 309.58-26.42 309.9-22.58Q311.22-24.63 313.19-25.77 315.15-26.9 317.64-26.9L317.64-26.9Q321.72-26.9 323.99-24.4 326.26-21.9 326.26-16.58L326.26-16.58 326.26-4.49 329.92-3.76 329.92 0 316.66 0 316.66-3.76 320.11-4.49 320.11-16.53Q320.11-19.53 318.91-20.79 317.71-22.05 315.35-22.05L315.35-22.05Q313.56-22.05 312.23-21.25 310.9-20.46 310.07-19.04L310.07-19.04 310.07-4.49 313.42-3.76 313.42 0ZM342.69 0.51L342.69 0.51Q339.49 0.51 337.22-1.1 334.95-2.71 333.74-5.6 332.53-8.5 332.53-12.35L332.53-12.35 332.53-12.87Q332.53-17.09 333.74-20.24 334.95-23.39 337.23-25.15 339.51-26.9 342.66-26.9L342.66-26.9Q344.93-26.9 346.63-26.04 348.33-25.17 349.55-23.56L349.55-23.56 349.55-33.57 345.67-34.3 345.67-38.09 349.55-38.09 355.7-38.09 355.7-4.49 359.36-3.76 359.36 0 350.38 0 349.89-3.2Q348.64-1.37 346.85-0.43 345.06 0.51 342.69 0.51ZM344.42-4.35L344.42-4.35Q346.18-4.35 347.45-5.11 348.72-5.88 349.55-7.35L349.55-7.35 349.55-18.99Q348.74-20.41 347.46-21.23 346.18-22.05 344.47-22.05L344.47-22.05Q342.47-22.05 341.19-20.89 339.9-19.73 339.29-17.66 338.68-15.6 338.68-12.87L338.68-12.87 338.68-12.35Q338.68-8.69 340.04-6.52 341.39-4.35 344.42-4.35ZM383.11 0.51L383.11 0.51Q379.08 0.51 376.84-1.56 374.59-3.64 374.59-7.28L374.59-7.28Q374.59-9.77 375.96-11.65 377.33-13.53 379.96-14.59 382.6-15.65 386.36-15.65L386.36-15.65 390.39-15.65 390.39-17.87Q390.39-19.97 389.13-21.22 387.87-22.46 385.48-22.46L385.48-22.46Q384.11-22.46 383.06-22.13 382.01-21.8 381.18-21.19L381.18-21.19 380.62-17.63 376.1-17.63 376.06-24.15Q378.01-25.42 380.4-26.16 382.79-26.9 385.72-26.9L385.72-26.9Q390.75-26.9 393.65-24.55 396.54-22.19 396.54-17.8L396.54-17.8 396.54-6.15Q396.54-5.62 396.55-5.1 396.56-4.59 396.61-4.1L396.61-4.1 399.3-3.76 399.3 0 391.27 0Q391.02-0.85 390.81-1.66 390.61-2.47 390.51-3.27L390.51-3.27Q389.19-1.61 387.32-0.55 385.46 0.51 383.11 0.51ZM384.5-4.25L384.5-4.25Q386.36-4.25 387.97-5.11 389.58-5.98 390.39-7.3L390.39-7.3 390.39-11.72 386.29-11.72Q383.53-11.72 382.12-10.44 380.72-9.16 380.72-7.45L380.72-7.45Q380.72-5.91 381.7-5.08 382.67-4.25 384.5-4.25ZM416.92 0L402.49 0 402.49-3.76 406.18-4.49 406.18-22.02 402.15-22.02 402.15-26.42 406.18-26.42 406.18-29.52Q406.18-33.86 408.59-36.23 410.99-38.6 415.31-38.6L415.31-38.6Q416.31-38.6 417.46-38.44 418.61-38.28 419.56-38.04L419.56-38.04 418.95-33.42Q418.44-33.54 417.68-33.63 416.92-33.72 416.19-33.72L416.19-33.72Q414.24-33.72 413.27-32.64 412.31-31.57 412.31-29.52L412.31-29.52 412.31-26.42 418.22-26.42 418.22-22.02 412.31-22.02 412.31-4.49 416.92-3.76 416.92 0ZM435.67 0L421.24 0 421.24-3.76 424.93-4.49 424.93-22.02 420.9-22.02 420.9-26.42 424.93-26.42 424.93-29.52Q424.93-33.86 427.33-36.23 429.74-38.6 434.06-38.6L434.06-38.6Q435.06-38.6 436.21-38.44 437.35-38.28 438.31-38.04L438.31-38.04 437.7-33.42Q437.18-33.54 436.43-33.63 435.67-33.72 434.94-33.72L434.94-33.72Q432.98-33.72 432.02-32.64 431.06-31.57 431.06-29.52L431.06-29.52 431.06-26.42 436.96-26.42 436.96-22.02 431.06-22.02 431.06-4.49 435.67-3.76 435.67 0ZM452.03 0.51L452.03 0.51Q448.22 0.51 445.48-1.2 442.75-2.91 441.28-5.94 439.82-8.98 439.82-12.94L439.82-12.94 439.82-13.45Q439.82-17.38 441.28-20.41 442.75-23.44 445.48-25.17 448.22-26.9 451.98-26.9L451.98-26.9Q455.78-26.9 458.52-25.18 461.25-23.46 462.72-20.43 464.18-17.41 464.18-13.45L464.18-13.45 464.18-12.94Q464.18-8.98 462.72-5.94 461.25-2.91 458.53-1.2 455.81 0.51 452.03 0.51ZM452.03-4.22L452.03-4.22Q454.08-4.22 455.41-5.33 456.74-6.45 457.4-8.41 458.06-10.38 458.06-12.94L458.06-12.94 458.06-13.45Q458.06-15.99 457.4-17.94 456.74-19.9 455.39-21.02 454.05-22.14 451.98-22.14L451.98-22.14Q449.95-22.14 448.61-21.02 447.26-19.9 446.62-17.94 445.97-15.99 445.97-13.45L445.97-13.45 445.97-12.94Q445.97-10.38 446.62-8.41 447.26-6.45 448.62-5.33 449.97-4.22 452.03-4.22ZM481.34 0L467.87 0 467.87-3.76 471.53-4.49 471.53-21.9 467.67-22.63 467.67-26.42 477.19-26.42 477.51-23.1 477.56-22.56Q478.61-24.66 480.14-25.78 481.66-26.9 483.71-26.9L483.71-26.9Q484.4-26.9 485.16-26.78 485.93-26.66 486.42-26.51L486.42-26.51 485.71-20.83 482.27-21.02Q480.59-21.12 479.5-20.36 478.41-19.6 477.68-18.26L477.68-18.26 477.68-4.49 481.34-3.76 481.34 0ZM498.7 0.51L498.7 0.51Q495.5 0.51 493.23-1.1 490.96-2.71 489.75-5.6 488.54-8.5 488.54-12.35L488.54-12.35 488.54-12.87Q488.54-17.09 489.75-20.24 490.96-23.39 493.24-25.15 495.53-26.9 498.68-26.9L498.68-26.9Q500.95-26.9 502.64-26.04 504.34-25.17 505.56-23.56L505.56-23.56 505.56-33.57 501.68-34.3 501.68-38.09 505.56-38.09 511.71-38.09 511.71-4.49 515.37-3.76 515.37 0 506.39 0 505.9-3.2Q504.66-1.37 502.86-0.43 501.07 0.51 498.7 0.51ZM500.43-4.35L500.43-4.35Q502.19-4.35 503.46-5.11 504.73-5.88 505.56-7.35L505.56-7.35 505.56-18.99Q504.75-20.41 503.47-21.23 502.19-22.05 500.48-22.05L500.48-22.05Q498.48-22.05 497.2-20.89 495.92-19.73 495.31-17.66 494.7-15.6 494.7-12.87L494.7-12.87 494.7-12.35Q494.7-8.69 496.05-6.52 497.41-4.35 500.43-4.35ZM526.8 0.51L526.8 0.51Q522.77 0.51 520.52-1.56 518.28-3.64 518.28-7.28L518.28-7.28Q518.28-9.77 519.64-11.65 521.01-13.53 523.65-14.59 526.29-15.65 530.05-15.65L530.05-15.65 534.07-15.65 534.07-17.87Q534.07-19.97 532.82-21.22 531.56-22.46 529.17-22.46L529.17-22.46Q527.8-22.46 526.75-22.13 525.7-21.8 524.87-21.19L524.87-21.19 524.31-17.63 519.79-17.63 519.74-24.15Q521.7-25.42 524.09-26.16 526.48-26.9 529.41-26.9L529.41-26.9Q534.44-26.9 537.33-24.55 540.23-22.19 540.23-17.8L540.23-17.8 540.23-6.15Q540.23-5.62 540.24-5.1 540.25-4.59 540.3-4.1L540.3-4.1 542.98-3.76 542.98 0 534.95 0Q534.71-0.85 534.5-1.66 534.29-2.47 534.2-3.27L534.2-3.27Q532.88-1.61 531.01-0.55 529.14 0.51 526.8 0.51ZM528.19-4.25L528.19-4.25Q530.05-4.25 531.66-5.11 533.27-5.98 534.07-7.3L534.07-7.3 534.07-11.72 529.97-11.72Q527.21-11.72 525.81-10.44 524.41-9.16 524.41-7.45L524.41-7.45Q524.41-5.91 525.38-5.08 526.36-4.25 528.19-4.25ZM560.83 0.51L560.83 0.51Q558.34 0.51 556.53-0.46 554.73-1.44 553.5-3.3L553.5-3.3 553.02 0 547.72 0 547.72-33.57 543.84-34.3 543.84-38.09 553.85-38.09 553.85-23.46Q555.04-25.15 556.79-26.03 558.53-26.9 560.85-26.9L560.85-26.9Q564.1-26.9 566.36-25.16 568.62-23.41 569.81-20.26 571.01-17.11 571.01-12.87L571.01-12.87 571.01-12.35Q571.01-8.5 569.81-5.59 568.62-2.69 566.35-1.09 564.08 0.51 560.83 0.51ZM559.07-4.35L559.07-4.35Q562.1-4.35 563.48-6.48 564.86-8.62 564.86-12.35L564.86-12.35 564.86-12.87Q564.86-15.65 564.25-17.71 563.64-19.78 562.37-20.91 561.1-22.05 559.1-22.05L559.1-22.05Q557.24-22.05 555.93-21.15 554.63-20.26 553.85-18.75L553.85-18.75 553.85-7.47Q554.65-5.98 555.96-5.16 557.26-4.35 559.07-4.35ZM587.22 0L573.72 0 573.72-3.76 577.4-4.49 577.4-33.57 573.5-34.3 573.5-38.09 583.53-38.09 583.53-4.49 587.22-3.76 587.22 0ZM601.89 0.51L601.89 0.51Q598.15 0.51 595.38-1.16 592.61-2.83 591.08-5.79 589.56-8.74 589.56-12.55L589.56-12.55 589.56-13.57Q589.56-17.43 591.06-20.45 592.56-23.46 595.2-25.18 597.84-26.9 601.2-26.9L601.2-26.9Q604.79-26.9 607.22-25.46 609.65-24.02 610.9-21.37 612.14-18.73 612.14-15.01L612.14-15.01 612.14-11.5 595.93-11.5 595.88-11.38Q595.98-9.3 596.75-7.69 597.52-6.08 598.95-5.15 600.37-4.22 602.43-4.22L602.43-4.22Q604.57-4.22 606.33-4.81 608.09-5.4 609.58-6.47L609.58-6.47 611.51-2.61Q609.94-1.29 607.53-0.39 605.11 0.51 601.89 0.51ZM595.96-15.94L596.03-15.82 606.26-15.82 606.26-16.46Q606.26-18.19 605.73-19.49 605.21-20.8 604.1-21.53 602.99-22.27 601.28-22.27L601.28-22.27Q599.79-22.27 598.67-21.44 597.54-20.61 596.87-19.18 596.2-17.75 595.96-15.94L595.96-15.94Z" opacity="1" transform="matrix(1,0,0,1,0,0)" fill="#000000" class="slogan-text-1" data-fill-palette-color="secondary" id="text-1"></path></svg></g></svg></g></svg></g></svg></g><g><svg viewBox="0 0 90.53173109826889 109.12041179661223" height="109.12041179661223" width="90.53173109826889"><g><svg xmlns="http://www.w3.org/2000/svg" xmlns:xlink="http://www.w3.org/1999/xlink" version="1.1" x="0" y="0" viewBox="5.356387615203857 1.3222235441207886 39.28788375854492 47.35477828979492" enable-background="new 0 0 50 50" xml:space="preserve" height="109.12041179661223" width="90.53173109826889" class="icon-icon-0" data-fill-palette-color="accent" id="icon-0"><g fill="#000000" data-fill-palette-color="accent"><path fill-rule="evenodd" clip-rule="evenodd" fill="#000000" d="M44.104 11.163c0.779-0.705 0.704-1.413-0.15-2.119-4.348 0.819-31.488 11.599-32.084 13.682C22.578 18.858 33.359 15.03 44.104 11.163z" data-fill-palette-color="accent"></path><path fill-rule="evenodd" clip-rule="evenodd" fill="#000000" d="M36.52 2.613c-0.484-3.271-4.054 0.521-6.617 2.082-2.642 2.043-4.833 3.531-7.547 5.578-2.566 1.968-13.312 9.478-13.906 11.783L36.52 2.613z" data-fill-palette-color="accent"></path><path fill-rule="evenodd" clip-rule="evenodd" fill="#000000" d="M18.671 26.926c2.752-1.076 2.381-4.869 7.548-2.936 0.483 0.781 0 1.45-0.632 2.229 3.235-1.261 5.245-2.86 7.66 1.303 1.896-0.631 5.726 0.93 6.023-0.074-1.488-0.816-3.05-1.486-5.354-1.486-0.744-0.707-1.523-1.376-2.305-2.083-1.19-0.372-2.416-0.335-3.641 0.111-1.268-0.818-1.936-1.747-4.092-1.747-2.12 0-2.791 0.929-4.017 1.747-3.271 0-3.568 0.036-5.986 2.229-1.561 0.447-3.159 0.855-4.721 1.303 0.073 0.223 0.111 0.447 0.186 0.631 1.747-0.258 3.495-0.52 5.242-0.779C15.214 24.995 20.048 23.582 18.671 26.926z" data-fill-palette-color="accent"></path><path fill-rule="evenodd" clip-rule="evenodd" fill="#000000" d="M5.363 28.861c-0.224 8.625 5.279 16.691 11.079 19.816h16.917c0.036-0.113 5.986-5.133 7.434-7.734 1.637-3.014 3.05-7.732 3.05-12.082H5.363z" data-fill-palette-color="accent"></path></g></svg></g></svg></g></svg></g><defs></defs></svg><rect width="395.52" height="86.92967504765468" fill="none" stroke="none" visibility="hidden"></rect></g></svg></g></svg>